%TF.GenerationSoftware,KiCad,Pcbnew,5.1.12-1.fc35*%
%TF.CreationDate,2022-01-17T09:06:34+01:00*%
%TF.ProjectId,PCB_F4 FMPAC_DIP_IMPRIMIR DEFINITIU copy_2021-07-27,5043425f-4634-4204-964d-5041435f4449,rev?*%
%TF.SameCoordinates,Original*%
%TF.FileFunction,Legend,Bot*%
%TF.FilePolarity,Positive*%
%FSLAX46Y46*%
G04 Gerber Fmt 4.6, Leading zero omitted, Abs format (unit mm)*
G04 Created by KiCad (PCBNEW 5.1.12-1.fc35) date 2022-01-17 09:06:34*
%MOMM*%
%LPD*%
G01*
G04 APERTURE LIST*
%ADD10C,0.203000*%
G04 APERTURE END LIST*
D10*
X125135764Y-35575857D02*
X124678621Y-35575857D01*
X124964335Y-36375857D02*
X124964335Y-35347285D01*
X124907192Y-35233000D01*
X124792907Y-35175857D01*
X124678621Y-35175857D01*
X123764335Y-35575857D02*
X123764335Y-36375857D01*
X124050050Y-35118714D02*
X124335764Y-35975857D01*
X123592907Y-35975857D01*
X122278621Y-35118714D02*
X123307192Y-36661571D01*
X122050050Y-35575857D02*
X121592907Y-35575857D01*
X121878621Y-36375857D02*
X121878621Y-35347285D01*
X121821478Y-35233000D01*
X121707192Y-35175857D01*
X121592907Y-35175857D01*
X121192907Y-36375857D02*
X121192907Y-35575857D01*
X121192907Y-35690142D02*
X121135764Y-35633000D01*
X121021478Y-35575857D01*
X120850050Y-35575857D01*
X120735764Y-35633000D01*
X120678621Y-35747285D01*
X120678621Y-36375857D01*
X120678621Y-35747285D02*
X120621478Y-35633000D01*
X120507192Y-35575857D01*
X120335764Y-35575857D01*
X120221478Y-35633000D01*
X120164335Y-35747285D01*
X120164335Y-36375857D01*
X119592907Y-35575857D02*
X119592907Y-36775857D01*
X119592907Y-35633000D02*
X119478621Y-35575857D01*
X119250050Y-35575857D01*
X119135764Y-35633000D01*
X119078621Y-35690142D01*
X119021478Y-35804428D01*
X119021478Y-36147285D01*
X119078621Y-36261571D01*
X119135764Y-36318714D01*
X119250050Y-36375857D01*
X119478621Y-36375857D01*
X119592907Y-36318714D01*
X117992907Y-36375857D02*
X117992907Y-35747285D01*
X118050050Y-35633000D01*
X118164335Y-35575857D01*
X118392907Y-35575857D01*
X118507192Y-35633000D01*
X117992907Y-36318714D02*
X118107192Y-36375857D01*
X118392907Y-36375857D01*
X118507192Y-36318714D01*
X118564335Y-36204428D01*
X118564335Y-36090142D01*
X118507192Y-35975857D01*
X118392907Y-35918714D01*
X118107192Y-35918714D01*
X117992907Y-35861571D01*
X116907192Y-36318714D02*
X117021478Y-36375857D01*
X117250049Y-36375857D01*
X117364335Y-36318714D01*
X117421478Y-36261571D01*
X117478621Y-36147285D01*
X117478621Y-35804428D01*
X117421478Y-35690142D01*
X117364335Y-35633000D01*
X117250049Y-35575857D01*
X117021478Y-35575857D01*
X116907192Y-35633000D01*
X114964335Y-36318714D02*
X115078621Y-36375857D01*
X115307192Y-36375857D01*
X115421478Y-36318714D01*
X115478621Y-36261571D01*
X115535764Y-36147285D01*
X115535764Y-35804428D01*
X115478621Y-35690142D01*
X115421478Y-35633000D01*
X115307192Y-35575857D01*
X115078621Y-35575857D01*
X114964335Y-35633000D01*
X114278621Y-36375857D02*
X114392907Y-36318714D01*
X114450049Y-36261571D01*
X114507192Y-36147285D01*
X114507192Y-35804428D01*
X114450049Y-35690142D01*
X114392907Y-35633000D01*
X114278621Y-35575857D01*
X114107192Y-35575857D01*
X113992907Y-35633000D01*
X113935764Y-35690142D01*
X113878621Y-35804428D01*
X113878621Y-36147285D01*
X113935764Y-36261571D01*
X113992907Y-36318714D01*
X114107192Y-36375857D01*
X114278621Y-36375857D01*
X113364335Y-36375857D02*
X113364335Y-35575857D01*
X113364335Y-35690142D02*
X113307192Y-35633000D01*
X113192907Y-35575857D01*
X113021478Y-35575857D01*
X112907192Y-35633000D01*
X112850049Y-35747285D01*
X112850049Y-36375857D01*
X112850049Y-35747285D02*
X112792907Y-35633000D01*
X112678621Y-35575857D01*
X112507192Y-35575857D01*
X112392907Y-35633000D01*
X112335764Y-35747285D01*
X112335764Y-36375857D01*
X111764335Y-36375857D02*
X111764335Y-35175857D01*
X111764335Y-35633000D02*
X111650049Y-35575857D01*
X111421478Y-35575857D01*
X111307192Y-35633000D01*
X111250049Y-35690142D01*
X111192907Y-35804428D01*
X111192907Y-36147285D01*
X111250049Y-36261571D01*
X111307192Y-36318714D01*
X111421478Y-36375857D01*
X111650049Y-36375857D01*
X111764335Y-36318714D01*
X110507192Y-36375857D02*
X110621478Y-36318714D01*
X110678621Y-36261571D01*
X110735764Y-36147285D01*
X110735764Y-35804428D01*
X110678621Y-35690142D01*
X110621478Y-35633000D01*
X110507192Y-35575857D01*
X110335764Y-35575857D01*
X110221478Y-35633000D01*
X110164335Y-35690142D01*
X110107192Y-35804428D01*
X110107192Y-36147285D01*
X110164335Y-36261571D01*
X110221478Y-36318714D01*
X110335764Y-36375857D01*
X110507192Y-36375857D01*
X108678621Y-36375857D02*
X108678621Y-35175857D01*
X108678621Y-35633000D02*
X108564335Y-35575857D01*
X108335764Y-35575857D01*
X108221478Y-35633000D01*
X108164335Y-35690142D01*
X108107192Y-35804428D01*
X108107192Y-36147285D01*
X108164335Y-36261571D01*
X108221478Y-36318714D01*
X108335764Y-36375857D01*
X108564335Y-36375857D01*
X108678621Y-36318714D01*
X107421478Y-36375857D02*
X107535764Y-36318714D01*
X107592907Y-36261571D01*
X107650049Y-36147285D01*
X107650049Y-35804428D01*
X107592907Y-35690142D01*
X107535764Y-35633000D01*
X107421478Y-35575857D01*
X107250049Y-35575857D01*
X107135764Y-35633000D01*
X107078621Y-35690142D01*
X107021478Y-35804428D01*
X107021478Y-36147285D01*
X107078621Y-36261571D01*
X107135764Y-36318714D01*
X107250049Y-36375857D01*
X107421478Y-36375857D01*
X105992907Y-36375857D02*
X105992907Y-35747285D01*
X106050049Y-35633000D01*
X106164335Y-35575857D01*
X106392907Y-35575857D01*
X106507192Y-35633000D01*
X105992907Y-36318714D02*
X106107192Y-36375857D01*
X106392907Y-36375857D01*
X106507192Y-36318714D01*
X106564335Y-36204428D01*
X106564335Y-36090142D01*
X106507192Y-35975857D01*
X106392907Y-35918714D01*
X106107192Y-35918714D01*
X105992907Y-35861571D01*
X105421478Y-36375857D02*
X105421478Y-35575857D01*
X105421478Y-35804428D02*
X105364335Y-35690142D01*
X105307192Y-35633000D01*
X105192907Y-35575857D01*
X105078621Y-35575857D01*
X104164335Y-36375857D02*
X104164335Y-35175857D01*
X104164335Y-36318714D02*
X104278621Y-36375857D01*
X104507192Y-36375857D01*
X104621478Y-36318714D01*
X104678621Y-36261571D01*
X104735764Y-36147285D01*
X104735764Y-35804428D01*
X104678621Y-35690142D01*
X104621478Y-35633000D01*
X104507192Y-35575857D01*
X104278621Y-35575857D01*
X104164335Y-35633000D01*
X102792907Y-35575857D02*
X102507192Y-36375857D01*
X102221478Y-35575857D01*
X101135764Y-36375857D02*
X101821478Y-36375857D01*
X101478621Y-36375857D02*
X101478621Y-35175857D01*
X101592907Y-35347285D01*
X101707192Y-35461571D01*
X101821478Y-35518714D01*
X100621478Y-36261571D02*
X100564335Y-36318714D01*
X100621478Y-36375857D01*
X100678621Y-36318714D01*
X100621478Y-36261571D01*
X100621478Y-36375857D01*
X100107192Y-35290142D02*
X100050049Y-35233000D01*
X99935764Y-35175857D01*
X99650049Y-35175857D01*
X99535764Y-35233000D01*
X99478621Y-35290142D01*
X99421478Y-35404428D01*
X99421478Y-35518714D01*
X99478621Y-35690142D01*
X100164335Y-36375857D01*
X99421478Y-36375857D01*
X125164335Y-38075857D02*
X125164335Y-36875857D01*
X125164335Y-37333000D02*
X125050050Y-37275857D01*
X124821478Y-37275857D01*
X124707192Y-37333000D01*
X124650050Y-37390142D01*
X124592907Y-37504428D01*
X124592907Y-37847285D01*
X124650050Y-37961571D01*
X124707192Y-38018714D01*
X124821478Y-38075857D01*
X125050050Y-38075857D01*
X125164335Y-38018714D01*
X124192907Y-37275857D02*
X123907192Y-38075857D01*
X123621478Y-37275857D02*
X123907192Y-38075857D01*
X124021478Y-38361571D01*
X124078621Y-38418714D01*
X124192907Y-38475857D01*
X121564335Y-37961571D02*
X121621478Y-38018714D01*
X121792907Y-38075857D01*
X121907192Y-38075857D01*
X122078621Y-38018714D01*
X122192907Y-37904428D01*
X122250050Y-37790142D01*
X122307192Y-37561571D01*
X122307192Y-37390142D01*
X122250050Y-37161571D01*
X122192907Y-37047285D01*
X122078621Y-36933000D01*
X121907192Y-36875857D01*
X121792907Y-36875857D01*
X121621478Y-36933000D01*
X121564335Y-36990142D01*
X120535764Y-38075857D02*
X120535764Y-37447285D01*
X120592907Y-37333000D01*
X120707192Y-37275857D01*
X120935764Y-37275857D01*
X121050050Y-37333000D01*
X120535764Y-38018714D02*
X120650050Y-38075857D01*
X120935764Y-38075857D01*
X121050050Y-38018714D01*
X121107192Y-37904428D01*
X121107192Y-37790142D01*
X121050050Y-37675857D01*
X120935764Y-37618714D01*
X120650050Y-37618714D01*
X120535764Y-37561571D01*
X119964335Y-37275857D02*
X119964335Y-38475857D01*
X119964335Y-37333000D02*
X119850050Y-37275857D01*
X119621478Y-37275857D01*
X119507192Y-37333000D01*
X119450050Y-37390142D01*
X119392907Y-37504428D01*
X119392907Y-37847285D01*
X119450050Y-37961571D01*
X119507192Y-38018714D01*
X119621478Y-38075857D01*
X119850050Y-38075857D01*
X119964335Y-38018714D01*
X118935764Y-38018714D02*
X118821478Y-38075857D01*
X118592907Y-38075857D01*
X118478621Y-38018714D01*
X118421478Y-37904428D01*
X118421478Y-37847285D01*
X118478621Y-37733000D01*
X118592907Y-37675857D01*
X118764335Y-37675857D01*
X118878621Y-37618714D01*
X118935764Y-37504428D01*
X118935764Y-37447285D01*
X118878621Y-37333000D01*
X118764335Y-37275857D01*
X118592907Y-37275857D01*
X118478621Y-37333000D01*
X117392907Y-37275857D02*
X117392907Y-38075857D01*
X117907192Y-37275857D02*
X117907192Y-37904428D01*
X117850050Y-38018714D01*
X117735764Y-38075857D01*
X117564335Y-38075857D01*
X117450050Y-38018714D01*
X117392907Y-37961571D01*
X116650050Y-38075857D02*
X116764335Y-38018714D01*
X116821478Y-37904428D01*
X116821478Y-36875857D01*
X115735764Y-38018714D02*
X115850050Y-38075857D01*
X116078621Y-38075857D01*
X116192907Y-38018714D01*
X116250050Y-37904428D01*
X116250050Y-37447285D01*
X116192907Y-37333000D01*
X116078621Y-37275857D01*
X115850050Y-37275857D01*
X115735764Y-37333000D01*
X115678621Y-37447285D01*
X115678621Y-37561571D01*
X116250050Y-37675857D01*
X114592907Y-36875857D02*
X115164335Y-36875857D01*
X115221478Y-37447285D01*
X115164335Y-37390142D01*
X115050050Y-37333000D01*
X114764335Y-37333000D01*
X114650050Y-37390142D01*
X114592907Y-37447285D01*
X114535764Y-37561571D01*
X114535764Y-37847285D01*
X114592907Y-37961571D01*
X114650050Y-38018714D01*
X114764335Y-38075857D01*
X115050050Y-38075857D01*
X115164335Y-38018714D01*
X115221478Y-37961571D01*
X113792907Y-36875857D02*
X113678621Y-36875857D01*
X113564335Y-36933000D01*
X113507192Y-36990142D01*
X113450050Y-37104428D01*
X113392907Y-37333000D01*
X113392907Y-37618714D01*
X113450050Y-37847285D01*
X113507192Y-37961571D01*
X113564335Y-38018714D01*
X113678621Y-38075857D01*
X113792907Y-38075857D01*
X113907192Y-38018714D01*
X113964335Y-37961571D01*
X114021478Y-37847285D01*
X114078621Y-37618714D01*
X114078621Y-37333000D01*
X114021478Y-37104428D01*
X113964335Y-36990142D01*
X113907192Y-36933000D01*
X113792907Y-36875857D01*
X112650050Y-36875857D02*
X112535764Y-36875857D01*
X112421478Y-36933000D01*
X112364335Y-36990142D01*
X112307192Y-37104428D01*
X112250050Y-37333000D01*
X112250050Y-37618714D01*
X112307192Y-37847285D01*
X112364335Y-37961571D01*
X112421478Y-38018714D01*
X112535764Y-38075857D01*
X112650050Y-38075857D01*
X112764335Y-38018714D01*
X112821478Y-37961571D01*
X112878621Y-37847285D01*
X112935764Y-37618714D01*
X112935764Y-37333000D01*
X112878621Y-37104428D01*
X112821478Y-36990142D01*
X112764335Y-36933000D01*
X112650050Y-36875857D01*
X111507192Y-36875857D02*
X111392907Y-36875857D01*
X111278621Y-36933000D01*
X111221478Y-36990142D01*
X111164335Y-37104428D01*
X111107192Y-37333000D01*
X111107192Y-37618714D01*
X111164335Y-37847285D01*
X111221478Y-37961571D01*
X111278621Y-38018714D01*
X111392907Y-38075857D01*
X111507192Y-38075857D01*
X111621478Y-38018714D01*
X111678621Y-37961571D01*
X111735764Y-37847285D01*
X111792907Y-37618714D01*
X111792907Y-37333000D01*
X111735764Y-37104428D01*
X111678621Y-36990142D01*
X111621478Y-36933000D01*
X111507192Y-36875857D01*
X109678621Y-38075857D02*
X109678621Y-36875857D01*
X109278621Y-37733000D01*
X108878621Y-36875857D01*
X108878621Y-38075857D01*
X108364335Y-38018714D02*
X108192907Y-38075857D01*
X107907192Y-38075857D01*
X107792907Y-38018714D01*
X107735764Y-37961571D01*
X107678621Y-37847285D01*
X107678621Y-37733000D01*
X107735764Y-37618714D01*
X107792907Y-37561571D01*
X107907192Y-37504428D01*
X108135764Y-37447285D01*
X108250050Y-37390142D01*
X108307192Y-37333000D01*
X108364335Y-37218714D01*
X108364335Y-37104428D01*
X108307192Y-36990142D01*
X108250050Y-36933000D01*
X108135764Y-36875857D01*
X107850050Y-36875857D01*
X107678621Y-36933000D01*
X107278621Y-36875857D02*
X106478621Y-38075857D01*
X106478621Y-36875857D02*
X107278621Y-38075857D01*
X106021478Y-38075857D02*
X106021478Y-37275857D01*
X106021478Y-37390142D02*
X105964335Y-37333000D01*
X105850050Y-37275857D01*
X105678621Y-37275857D01*
X105564335Y-37333000D01*
X105507192Y-37447285D01*
X105507192Y-38075857D01*
X105507192Y-37447285D02*
X105450050Y-37333000D01*
X105335764Y-37275857D01*
X105164335Y-37275857D01*
X105050050Y-37333000D01*
X104992907Y-37447285D01*
X104992907Y-38075857D01*
X103907192Y-38075857D02*
X103907192Y-37447285D01*
X103964335Y-37333000D01*
X104078621Y-37275857D01*
X104307192Y-37275857D01*
X104421478Y-37333000D01*
X103907192Y-38018714D02*
X104021478Y-38075857D01*
X104307192Y-38075857D01*
X104421478Y-38018714D01*
X104478621Y-37904428D01*
X104478621Y-37790142D01*
X104421478Y-37675857D01*
X104307192Y-37618714D01*
X104021478Y-37618714D01*
X103907192Y-37561571D01*
X103335764Y-38075857D02*
X103335764Y-36875857D01*
X103221478Y-37618714D02*
X102878621Y-38075857D01*
X102878621Y-37275857D02*
X103335764Y-37733000D01*
X101907192Y-38018714D02*
X102021478Y-38075857D01*
X102250050Y-38075857D01*
X102364335Y-38018714D01*
X102421478Y-37904428D01*
X102421478Y-37447285D01*
X102364335Y-37333000D01*
X102250050Y-37275857D01*
X102021478Y-37275857D01*
X101907192Y-37333000D01*
X101850050Y-37447285D01*
X101850050Y-37561571D01*
X102421478Y-37675857D01*
X101335764Y-38075857D02*
X101335764Y-37275857D01*
X101335764Y-37504428D02*
X101278621Y-37390142D01*
X101221478Y-37333000D01*
X101107192Y-37275857D01*
X100992907Y-37275857D01*
X100650050Y-38018714D02*
X100535764Y-38075857D01*
X100307192Y-38075857D01*
X100192907Y-38018714D01*
X100135764Y-37904428D01*
X100135764Y-37847285D01*
X100192907Y-37733000D01*
X100307192Y-37675857D01*
X100478621Y-37675857D01*
X100592907Y-37618714D01*
X100650050Y-37504428D01*
X100650050Y-37447285D01*
X100592907Y-37333000D01*
X100478621Y-37275857D01*
X100307192Y-37275857D01*
X100192907Y-37333000D01*
X98707192Y-38075857D02*
X98707192Y-37275857D01*
X98707192Y-37390142D02*
X98650050Y-37333000D01*
X98535764Y-37275857D01*
X98364335Y-37275857D01*
X98250050Y-37333000D01*
X98192907Y-37447285D01*
X98192907Y-38075857D01*
X98192907Y-37447285D02*
X98135764Y-37333000D01*
X98021478Y-37275857D01*
X97850050Y-37275857D01*
X97735764Y-37333000D01*
X97678621Y-37447285D01*
X97678621Y-38075857D01*
X96650050Y-38018714D02*
X96764335Y-38075857D01*
X96992907Y-38075857D01*
X97107192Y-38018714D01*
X97164335Y-37904428D01*
X97164335Y-37447285D01*
X97107192Y-37333000D01*
X96992907Y-37275857D01*
X96764335Y-37275857D01*
X96650050Y-37333000D01*
X96592907Y-37447285D01*
X96592907Y-37561571D01*
X97164335Y-37675857D01*
X96078621Y-38075857D02*
X96078621Y-37275857D01*
X96078621Y-37390142D02*
X96021478Y-37333000D01*
X95907192Y-37275857D01*
X95735764Y-37275857D01*
X95621478Y-37333000D01*
X95564335Y-37447285D01*
X95564335Y-38075857D01*
X95564335Y-37447285D02*
X95507192Y-37333000D01*
X95392907Y-37275857D01*
X95221478Y-37275857D01*
X95107192Y-37333000D01*
X95050050Y-37447285D01*
X95050050Y-38075857D01*
X94478621Y-38075857D02*
X94478621Y-36875857D01*
X94478621Y-37333000D02*
X94364335Y-37275857D01*
X94135764Y-37275857D01*
X94021478Y-37333000D01*
X93964335Y-37390142D01*
X93907192Y-37504428D01*
X93907192Y-37847285D01*
X93964335Y-37961571D01*
X94021478Y-38018714D01*
X94135764Y-38075857D01*
X94364335Y-38075857D01*
X94478621Y-38018714D01*
X92935764Y-38018714D02*
X93050050Y-38075857D01*
X93278621Y-38075857D01*
X93392907Y-38018714D01*
X93450050Y-37904428D01*
X93450050Y-37447285D01*
X93392907Y-37333000D01*
X93278621Y-37275857D01*
X93050050Y-37275857D01*
X92935764Y-37333000D01*
X92878621Y-37447285D01*
X92878621Y-37561571D01*
X93450050Y-37675857D01*
X92364335Y-38075857D02*
X92364335Y-37275857D01*
X92364335Y-37504428D02*
X92307192Y-37390142D01*
X92250050Y-37333000D01*
X92135764Y-37275857D01*
X92021478Y-37275857D01*
X124764335Y-39297285D02*
X125164335Y-39297285D01*
X125164335Y-39925857D02*
X125164335Y-38725857D01*
X124592907Y-38725857D01*
X123621478Y-39125857D02*
X123621478Y-39925857D01*
X123907192Y-38668714D02*
X124192907Y-39525857D01*
X123450050Y-39525857D01*
X122992907Y-39925857D02*
X122992907Y-38725857D01*
X122535764Y-38725857D01*
X122421478Y-38783000D01*
X122364335Y-38840142D01*
X122307192Y-38954428D01*
X122307192Y-39125857D01*
X122364335Y-39240142D01*
X122421478Y-39297285D01*
X122535764Y-39354428D01*
X122992907Y-39354428D01*
X121621478Y-39925857D02*
X121735764Y-39868714D01*
X121792907Y-39811571D01*
X121850050Y-39697285D01*
X121850050Y-39354428D01*
X121792907Y-39240142D01*
X121735764Y-39183000D01*
X121621478Y-39125857D01*
X121450050Y-39125857D01*
X121335764Y-39183000D01*
X121278621Y-39240142D01*
X121221478Y-39354428D01*
X121221478Y-39697285D01*
X121278621Y-39811571D01*
X121335764Y-39868714D01*
X121450050Y-39925857D01*
X121621478Y-39925857D01*
X120707192Y-39925857D02*
X120707192Y-39125857D01*
X120707192Y-39354428D02*
X120650050Y-39240142D01*
X120592907Y-39183000D01*
X120478621Y-39125857D01*
X120364335Y-39125857D01*
X120135764Y-39125857D02*
X119678621Y-39125857D01*
X119964335Y-38725857D02*
X119964335Y-39754428D01*
X119907192Y-39868714D01*
X119792907Y-39925857D01*
X119678621Y-39925857D01*
X118421478Y-38668714D02*
X119450050Y-40211571D01*
X117621478Y-39297285D02*
X118021478Y-39297285D01*
X118021478Y-39925857D02*
X118021478Y-38725857D01*
X117450050Y-38725857D01*
X116992907Y-39925857D02*
X116992907Y-38725857D01*
X116592907Y-39583000D01*
X116192907Y-38725857D01*
X116192907Y-39925857D01*
X115621478Y-39925857D02*
X115621478Y-38725857D01*
X115164335Y-38725857D01*
X115050050Y-38783000D01*
X114992907Y-38840142D01*
X114935764Y-38954428D01*
X114935764Y-39125857D01*
X114992907Y-39240142D01*
X115050050Y-39297285D01*
X115164335Y-39354428D01*
X115621478Y-39354428D01*
X114478621Y-39583000D02*
X113907192Y-39583000D01*
X114592907Y-39925857D02*
X114192907Y-38725857D01*
X113792907Y-39925857D01*
X112707192Y-39811571D02*
X112764335Y-39868714D01*
X112935764Y-39925857D01*
X113050050Y-39925857D01*
X113221478Y-39868714D01*
X113335764Y-39754428D01*
X113392907Y-39640142D01*
X113450050Y-39411571D01*
X113450050Y-39240142D01*
X113392907Y-39011571D01*
X113335764Y-38897285D01*
X113221478Y-38783000D01*
X113050050Y-38725857D01*
X112935764Y-38725857D01*
X112764335Y-38783000D01*
X112707192Y-38840142D01*
X111450050Y-39125857D02*
X110992907Y-39125857D01*
X111278621Y-39925857D02*
X111278621Y-38897285D01*
X111221478Y-38783000D01*
X111107192Y-38725857D01*
X110992907Y-38725857D01*
X110421478Y-39925857D02*
X110535764Y-39868714D01*
X110592907Y-39811571D01*
X110650050Y-39697285D01*
X110650050Y-39354428D01*
X110592907Y-39240142D01*
X110535764Y-39183000D01*
X110421478Y-39125857D01*
X110250050Y-39125857D01*
X110135764Y-39183000D01*
X110078621Y-39240142D01*
X110021478Y-39354428D01*
X110021478Y-39697285D01*
X110078621Y-39811571D01*
X110135764Y-39868714D01*
X110250050Y-39925857D01*
X110421478Y-39925857D01*
X109507192Y-39925857D02*
X109507192Y-39125857D01*
X109507192Y-39354428D02*
X109450050Y-39240142D01*
X109392907Y-39183000D01*
X109278621Y-39125857D01*
X109164335Y-39125857D01*
X108021478Y-39125857D02*
X107564335Y-39125857D01*
X107850050Y-38725857D02*
X107850050Y-39754428D01*
X107792907Y-39868714D01*
X107678621Y-39925857D01*
X107564335Y-39925857D01*
X107164335Y-39925857D02*
X107164335Y-38725857D01*
X106650050Y-39925857D02*
X106650050Y-39297285D01*
X106707192Y-39183000D01*
X106821478Y-39125857D01*
X106992907Y-39125857D01*
X107107192Y-39183000D01*
X107164335Y-39240142D01*
X105621478Y-39868714D02*
X105735764Y-39925857D01*
X105964335Y-39925857D01*
X106078621Y-39868714D01*
X106135764Y-39754428D01*
X106135764Y-39297285D01*
X106078621Y-39183000D01*
X105964335Y-39125857D01*
X105735764Y-39125857D01*
X105621478Y-39183000D01*
X105564335Y-39297285D01*
X105564335Y-39411571D01*
X106135764Y-39525857D01*
X103907192Y-38725857D02*
X103678621Y-38725857D01*
X103564335Y-38783000D01*
X103450050Y-38897285D01*
X103392907Y-39125857D01*
X103392907Y-39525857D01*
X103450050Y-39754428D01*
X103564335Y-39868714D01*
X103678621Y-39925857D01*
X103907192Y-39925857D01*
X104021478Y-39868714D01*
X104135764Y-39754428D01*
X104192907Y-39525857D01*
X104192907Y-39125857D01*
X104135764Y-38897285D01*
X104021478Y-38783000D01*
X103907192Y-38725857D01*
X102878621Y-39925857D02*
X102878621Y-38725857D01*
X102478621Y-39583000D01*
X102078621Y-38725857D01*
X102078621Y-39925857D01*
X101507192Y-39297285D02*
X101107192Y-39297285D01*
X100935764Y-39925857D02*
X101507192Y-39925857D01*
X101507192Y-38725857D01*
X100935764Y-38725857D01*
X99792907Y-38783000D02*
X99907192Y-38725857D01*
X100078621Y-38725857D01*
X100250050Y-38783000D01*
X100364335Y-38897285D01*
X100421478Y-39011571D01*
X100478621Y-39240142D01*
X100478621Y-39411571D01*
X100421478Y-39640142D01*
X100364335Y-39754428D01*
X100250050Y-39868714D01*
X100078621Y-39925857D01*
X99964335Y-39925857D01*
X99792907Y-39868714D01*
X99735764Y-39811571D01*
X99735764Y-39411571D01*
X99964335Y-39411571D01*
X99278621Y-39583000D02*
X98707192Y-39583000D01*
X99392907Y-39925857D02*
X98992907Y-38725857D01*
X98592907Y-39925857D01*
X97278621Y-39925857D02*
X97278621Y-38725857D01*
X97278621Y-39297285D02*
X96592907Y-39297285D01*
X96592907Y-39925857D02*
X96592907Y-38725857D01*
X95792907Y-38725857D02*
X95564335Y-38725857D01*
X95450050Y-38783000D01*
X95335764Y-38897285D01*
X95278621Y-39125857D01*
X95278621Y-39525857D01*
X95335764Y-39754428D01*
X95450050Y-39868714D01*
X95564335Y-39925857D01*
X95792907Y-39925857D01*
X95907192Y-39868714D01*
X96021478Y-39754428D01*
X96078621Y-39525857D01*
X96078621Y-39125857D01*
X96021478Y-38897285D01*
X95907192Y-38783000D01*
X95792907Y-38725857D01*
X94764335Y-39925857D02*
X94764335Y-38725857D01*
X94364335Y-39583000D01*
X93964335Y-38725857D01*
X93964335Y-39925857D01*
X93392907Y-39297285D02*
X92992907Y-39297285D01*
X92821478Y-39925857D02*
X93392907Y-39925857D01*
X93392907Y-38725857D01*
X92821478Y-38725857D01*
X90707192Y-39811571D02*
X90764335Y-39868714D01*
X90935764Y-39925857D01*
X91050050Y-39925857D01*
X91221478Y-39868714D01*
X91335764Y-39754428D01*
X91392907Y-39640142D01*
X91450050Y-39411571D01*
X91450050Y-39240142D01*
X91392907Y-39011571D01*
X91335764Y-38897285D01*
X91221478Y-38783000D01*
X91050050Y-38725857D01*
X90935764Y-38725857D01*
X90764335Y-38783000D01*
X90707192Y-38840142D01*
X89964335Y-38725857D02*
X89735764Y-38725857D01*
X89621478Y-38783000D01*
X89507192Y-38897285D01*
X89450050Y-39125857D01*
X89450050Y-39525857D01*
X89507192Y-39754428D01*
X89621478Y-39868714D01*
X89735764Y-39925857D01*
X89964335Y-39925857D01*
X90078621Y-39868714D01*
X90192907Y-39754428D01*
X90250050Y-39525857D01*
X90250050Y-39125857D01*
X90192907Y-38897285D01*
X90078621Y-38783000D01*
X89964335Y-38725857D01*
X88935764Y-39925857D02*
X88935764Y-38725857D01*
X88535764Y-39583000D01*
X88135764Y-38725857D01*
X88135764Y-39925857D01*
X87564335Y-39925857D02*
X87564335Y-38725857D01*
X87107192Y-38725857D01*
X86992907Y-38783000D01*
X86935764Y-38840142D01*
X86878621Y-38954428D01*
X86878621Y-39125857D01*
X86935764Y-39240142D01*
X86992907Y-39297285D01*
X87107192Y-39354428D01*
X87564335Y-39354428D01*
X86364335Y-38725857D02*
X86364335Y-39697285D01*
X86307192Y-39811571D01*
X86250050Y-39868714D01*
X86135764Y-39925857D01*
X85907192Y-39925857D01*
X85792907Y-39868714D01*
X85735764Y-39811571D01*
X85678621Y-39697285D01*
X85678621Y-38725857D01*
X85278621Y-38725857D02*
X84592907Y-38725857D01*
X84935764Y-39925857D02*
X84935764Y-38725857D01*
X84192907Y-39297285D02*
X83792907Y-39297285D01*
X83621478Y-39925857D02*
X84192907Y-39925857D01*
X84192907Y-38725857D01*
X83621478Y-38725857D01*
X82421478Y-39925857D02*
X82821478Y-39354428D01*
X83107192Y-39925857D02*
X83107192Y-38725857D01*
X82650050Y-38725857D01*
X82535764Y-38783000D01*
X82478621Y-38840142D01*
X82421478Y-38954428D01*
X82421478Y-39125857D01*
X82478621Y-39240142D01*
X82535764Y-39297285D01*
X82650050Y-39354428D01*
X83107192Y-39354428D01*
M02*
