%TF.GenerationSoftware,KiCad,Pcbnew,5.1.12-1.fc35*%
%TF.CreationDate,2022-01-17T09:06:34+01:00*%
%TF.ProjectId,PCB_F4 FMPAC_DIP_IMPRIMIR DEFINITIU copy_2021-07-27,5043425f-4634-4204-964d-5041435f4449,rev?*%
%TF.SameCoordinates,Original*%
%TF.FileFunction,Paste,Top*%
%TF.FilePolarity,Positive*%
%FSLAX46Y46*%
G04 Gerber Fmt 4.6, Leading zero omitted, Abs format (unit mm)*
G04 Created by KiCad (PCBNEW 5.1.12-1.fc35) date 2022-01-17 09:06:34*
%MOMM*%
%LPD*%
G01*
G04 APERTURE LIST*
%ADD10C,1.880000*%
%ADD11C,1.600000*%
%ADD12R,2.159000X1.199000*%
%ADD13R,1.676000X1.676000*%
%ADD14C,1.524000*%
%ADD15C,1.200000*%
%ADD16C,1.651000*%
%ADD17C,1.397000*%
%ADD18R,1.397000X1.397000*%
%ADD19R,1.880000X1.880000*%
G04 APERTURE END LIST*
D10*
%TO.C,SLT*%
X189232000Y-78983000D03*
%TD*%
D11*
%TO.C,MCP6281*%
X150673000Y-63642000D03*
X150673000Y-66182000D03*
X150673000Y-68722000D03*
X150673000Y-71262000D03*
X158293000Y-71262000D03*
X158293000Y-68722000D03*
X158293000Y-66182000D03*
X158293000Y-63642000D03*
%TD*%
D12*
%TO.C,MOTHERBOARD_Z80_SOCKET*%
X130162000Y-87404000D03*
X145402000Y-87404000D03*
X130162000Y-89944000D03*
X130162000Y-92484000D03*
X130162000Y-95024000D03*
X130162000Y-97564000D03*
X130162000Y-100104000D03*
X130162000Y-102644000D03*
X130162000Y-105184000D03*
X130162000Y-107724000D03*
X130162000Y-110264000D03*
X145402000Y-89944000D03*
X145402000Y-92484000D03*
X145402000Y-95024000D03*
X145402000Y-97564000D03*
X145402000Y-100104000D03*
X145402000Y-102644000D03*
X145402000Y-105184000D03*
X145402000Y-107724000D03*
X145402000Y-110264000D03*
X130162000Y-84864000D03*
X130162000Y-82324000D03*
X130162000Y-79784000D03*
X130162000Y-77244000D03*
X130162000Y-74704000D03*
X130162000Y-72164000D03*
X130162000Y-69624000D03*
X130162000Y-67084000D03*
X130162000Y-64544000D03*
X130162000Y-62004000D03*
X145402000Y-84864000D03*
X145402000Y-82324000D03*
X145402000Y-79784000D03*
X145402000Y-77244000D03*
X145402000Y-74704000D03*
X145402000Y-72164000D03*
X145402000Y-69624000D03*
X145402000Y-67084000D03*
X145402000Y-64544000D03*
X145402000Y-62004000D03*
%TD*%
D11*
%TO.C,YM2413*%
X150622000Y-76093000D03*
X150622000Y-78633000D03*
X150622000Y-86253000D03*
X150622000Y-88793000D03*
X150622000Y-81173000D03*
X150622000Y-83713000D03*
X150622000Y-91333000D03*
X150622000Y-93873000D03*
X158242000Y-93873000D03*
X158242000Y-91333000D03*
X158242000Y-88793000D03*
X158242000Y-86253000D03*
X158242000Y-83713000D03*
X158242000Y-81173000D03*
X158242000Y-78633000D03*
X158242000Y-76093000D03*
X150622000Y-96413000D03*
X158242000Y-96413000D03*
%TD*%
%TO.C,LM4558N*%
X150373000Y-101443000D03*
X150373000Y-103983000D03*
X150373000Y-106523000D03*
X150373000Y-109063000D03*
X157993000Y-109063000D03*
X157993000Y-106523000D03*
X157993000Y-103983000D03*
X157993000Y-101443000D03*
%TD*%
D12*
%TO.C,Z80_CPU*%
X125763000Y-86152000D03*
X141003000Y-86152000D03*
X125763000Y-88692000D03*
X125763000Y-91232000D03*
X125763000Y-93772000D03*
X125763000Y-96312000D03*
X125763000Y-98852000D03*
X125763000Y-101392000D03*
X125763000Y-103932000D03*
X125763000Y-106472000D03*
X125763000Y-109012000D03*
X141003000Y-88692000D03*
X141003000Y-91232000D03*
X141003000Y-93772000D03*
X141003000Y-96312000D03*
X141003000Y-98852000D03*
X141003000Y-101392000D03*
X141003000Y-103932000D03*
X141003000Y-106472000D03*
X141003000Y-109012000D03*
X125763000Y-83612000D03*
X125763000Y-81072000D03*
X125763000Y-78532000D03*
X125763000Y-75992000D03*
X125763000Y-73452000D03*
X125763000Y-70912000D03*
X125763000Y-68372000D03*
X125763000Y-65832000D03*
X125763000Y-63292000D03*
X125763000Y-60752000D03*
X141003000Y-83612000D03*
X141003000Y-81072000D03*
X141003000Y-78532000D03*
X141003000Y-75992000D03*
X141003000Y-73452000D03*
X141003000Y-70912000D03*
X141003000Y-68372000D03*
X141003000Y-65832000D03*
X141003000Y-63292000D03*
X141003000Y-60752000D03*
%TD*%
D10*
%TO.C,DC-DC_5V_+-12V*%
X187856000Y-63612000D03*
X185316000Y-63612000D03*
X190396000Y-63612000D03*
X182776000Y-63612000D03*
X180236000Y-63612000D03*
%TD*%
D13*
%TO.C,VREG1*%
X162912000Y-75586000D03*
X164182000Y-73681000D03*
X165452000Y-75586000D03*
%TD*%
D11*
%TO.C,U2*%
X72442000Y-42993000D03*
X74982000Y-42993000D03*
X77522000Y-42993000D03*
X80062000Y-42993000D03*
X80062000Y-35373000D03*
X77522000Y-35373000D03*
X74982000Y-35373000D03*
X72442000Y-35373000D03*
%TD*%
D14*
%TO.C,LED1*%
X189952000Y-117833000D03*
X187412000Y-117833000D03*
%TD*%
D11*
%TO.C,IC7*%
X133492000Y-130723000D03*
X133492000Y-128183000D03*
X133492000Y-120563000D03*
X133492000Y-118023000D03*
X133492000Y-125643000D03*
X133492000Y-123103000D03*
X133492000Y-115483000D03*
X125872000Y-115483000D03*
X125872000Y-118023000D03*
X125872000Y-120563000D03*
X125872000Y-123103000D03*
X125872000Y-125643000D03*
X125872000Y-128183000D03*
X125872000Y-130723000D03*
%TD*%
%TO.C,IC3*%
X190992000Y-151223000D03*
X190992000Y-148683000D03*
X190992000Y-141063000D03*
X190992000Y-138523000D03*
X190992000Y-146143000D03*
X190992000Y-143603000D03*
X190992000Y-135983000D03*
X183372000Y-135983000D03*
X183372000Y-138523000D03*
X183372000Y-141063000D03*
X183372000Y-143603000D03*
X183372000Y-146143000D03*
X183372000Y-148683000D03*
X183372000Y-151223000D03*
%TD*%
%TO.C,IC6*%
X150992000Y-130723000D03*
X150992000Y-128183000D03*
X150992000Y-120563000D03*
X150992000Y-118023000D03*
X150992000Y-125643000D03*
X150992000Y-123103000D03*
X150992000Y-115483000D03*
X143372000Y-115483000D03*
X143372000Y-118023000D03*
X143372000Y-120563000D03*
X143372000Y-123103000D03*
X143372000Y-125643000D03*
X143372000Y-128183000D03*
X143372000Y-130723000D03*
%TD*%
%TO.C,IC8*%
X150992000Y-151223000D03*
X150992000Y-148683000D03*
X150992000Y-141063000D03*
X150992000Y-138523000D03*
X150992000Y-146143000D03*
X150992000Y-143603000D03*
X150992000Y-135983000D03*
X143372000Y-135983000D03*
X143372000Y-138523000D03*
X143372000Y-141063000D03*
X143372000Y-143603000D03*
X143372000Y-146143000D03*
X143372000Y-148683000D03*
X143372000Y-151223000D03*
%TD*%
%TO.C,IC9*%
X133492000Y-151223000D03*
X133492000Y-148683000D03*
X133492000Y-141063000D03*
X133492000Y-138523000D03*
X133492000Y-146143000D03*
X133492000Y-143603000D03*
X133492000Y-135983000D03*
X125872000Y-135983000D03*
X125872000Y-138523000D03*
X125872000Y-141063000D03*
X125872000Y-143603000D03*
X125872000Y-146143000D03*
X125872000Y-148683000D03*
X125872000Y-151223000D03*
%TD*%
%TO.C,IC2*%
X177992000Y-151223000D03*
X177992000Y-148683000D03*
X177992000Y-141063000D03*
X177992000Y-138523000D03*
X177992000Y-146143000D03*
X177992000Y-143603000D03*
X177992000Y-135983000D03*
X170372000Y-135983000D03*
X170372000Y-138523000D03*
X170372000Y-141063000D03*
X170372000Y-143603000D03*
X170372000Y-146143000D03*
X170372000Y-148683000D03*
X170372000Y-151223000D03*
%TD*%
D15*
%TO.C,C1*%
X162431000Y-128833000D03*
X163933000Y-128833000D03*
%TD*%
D16*
%TO.C,R11*%
X178182000Y-124023000D03*
X178182000Y-131643000D03*
%TD*%
%TO.C,R13*%
X176682000Y-102523000D03*
X176682000Y-110143000D03*
%TD*%
%TO.C,R3*%
X156682000Y-128143000D03*
X156682000Y-120523000D03*
%TD*%
%TO.C,R2*%
X184682000Y-89643000D03*
X184682000Y-82023000D03*
%TD*%
%TO.C,R1*%
X164182000Y-92523000D03*
X164182000Y-100143000D03*
%TD*%
%TO.C,R4*%
X164182000Y-82523000D03*
X164182000Y-90143000D03*
%TD*%
%TO.C,R5*%
X179682000Y-92523000D03*
X179682000Y-100143000D03*
%TD*%
%TO.C,R6*%
X174182000Y-100143000D03*
X174182000Y-92523000D03*
%TD*%
%TO.C,R7*%
X189182000Y-100143000D03*
X189182000Y-92523000D03*
%TD*%
%TO.C,R8*%
X184682000Y-100143000D03*
X184682000Y-92523000D03*
%TD*%
%TO.C,R9*%
X169182000Y-92523000D03*
X169182000Y-100143000D03*
%TD*%
%TO.C,R10*%
X174182000Y-90143000D03*
X174182000Y-82523000D03*
%TD*%
%TO.C,R14*%
X155182000Y-152643000D03*
X155182000Y-145023000D03*
%TD*%
%TO.C,R15*%
X159682000Y-142643000D03*
X159682000Y-135023000D03*
%TD*%
%TO.C,R12*%
X183182000Y-110143000D03*
X183182000Y-102523000D03*
%TD*%
%TO.C,R18*%
X189182000Y-89643000D03*
X189182000Y-82023000D03*
%TD*%
%TO.C,R16*%
X183182000Y-113023000D03*
X183182000Y-120643000D03*
%TD*%
D15*
%TO.C,C5*%
X164433000Y-68833000D03*
X162932000Y-68833000D03*
%TD*%
%TO.C,C6*%
X164432000Y-63833000D03*
X162931000Y-63833000D03*
%TD*%
%TO.C,C2*%
X162431000Y-121833000D03*
X163933000Y-121833000D03*
%TD*%
D17*
%TO.C,C3*%
X179682000Y-83293000D03*
X179682000Y-88373000D03*
%TD*%
%TO.C,C4*%
X169182000Y-83293000D03*
X169182000Y-88373000D03*
%TD*%
D15*
%TO.C,C7*%
X170931000Y-121833000D03*
X172432000Y-121833000D03*
%TD*%
%TO.C,C9*%
X164682000Y-151084000D03*
X164682000Y-149582000D03*
%TD*%
D17*
%TO.C,C11*%
X159682000Y-146293000D03*
X159682000Y-151373000D03*
%TD*%
D15*
%TO.C,C12*%
X170932000Y-128833000D03*
X172433000Y-128833000D03*
%TD*%
D17*
%TO.C,C14*%
X168682000Y-109373000D03*
X168682000Y-104293000D03*
%TD*%
%TO.C,C8*%
X161642000Y-79333000D03*
X166722000Y-79333000D03*
%TD*%
%TO.C,C16*%
X164682000Y-109373000D03*
X164682000Y-104293000D03*
%TD*%
%TO.C,C10*%
X190182000Y-125793000D03*
X190182000Y-130873000D03*
%TD*%
%TO.C,C13*%
X184682000Y-125793000D03*
X184682000Y-130873000D03*
%TD*%
%TO.C,D2*%
X155182000Y-135023000D03*
D18*
X155182000Y-142643000D03*
%TD*%
D10*
%TO.C,SJ3*%
X190682000Y-108873000D03*
D19*
X190682000Y-106333000D03*
%TD*%
M02*
