M48
; DRILL file {KiCad 5.1.12-1.fc35} date lun 17 ene 2022 09:06:32
; FORMAT={-:-/ absolute / inch / decimal}
; #@! TF.CreationDate,2022-01-17T09:06:32+01:00
; #@! TF.GenerationSoftware,Kicad,Pcbnew,5.1.12-1.fc35
; #@! TF.FileFunction,Plated,1,2,PTH
FMAT,2
INCH
T1C0.0122
T2C0.0314
T3C0.0315
T4C0.0320
T5C0.0330
T6C0.0354
T7C0.0360
T8C0.0400
%
G90
G05
T1
X3.373Y-1.6496
X5.166Y-4.3876
X5.8563Y-4.6477
X6.1774Y-4.5642
X6.1841Y-5.1419
X6.2305Y-5.8261
X6.3254Y-4.4152
X6.3392Y-4.9676
X6.3743Y-5.1394
X6.5106Y-5.0683
X6.8135Y-3.4141
X7.0741Y-3.8232
X7.1504Y-5.7001
T2
X4.9513Y-2.3918
X4.9513Y-2.4918
X4.9513Y-2.5918
X4.9513Y-2.6918
X4.9513Y-2.7918
X4.9513Y-2.8918
X4.9513Y-2.9918
X4.9513Y-3.0918
X4.9513Y-3.1918
X4.9513Y-3.2918
X4.9513Y-3.3918
X4.9513Y-3.4918
X4.9513Y-3.5918
X4.9513Y-3.6918
X4.9513Y-3.7918
X4.9513Y-3.8918
X4.9513Y-3.9918
X4.9513Y-4.0918
X4.9513Y-4.1918
X4.9513Y-4.2918
X5.1245Y-2.4411
X5.1245Y-2.5411
X5.1245Y-2.6411
X5.1245Y-2.7411
X5.1245Y-2.8411
X5.1245Y-2.9411
X5.1245Y-3.0411
X5.1245Y-3.1411
X5.1245Y-3.2411
X5.1245Y-3.3411
X5.1245Y-3.4411
X5.1245Y-3.5411
X5.1245Y-3.6411
X5.1245Y-3.7411
X5.1245Y-3.8411
X5.1245Y-3.9411
X5.1245Y-4.0411
X5.1245Y-4.1411
X5.1245Y-4.2411
X5.1245Y-4.3411
X5.5513Y-2.3918
X5.5513Y-2.4918
X5.5513Y-2.5918
X5.5513Y-2.6918
X5.5513Y-2.7918
X5.5513Y-2.8918
X5.5513Y-2.9918
X5.5513Y-3.0918
X5.5513Y-3.1918
X5.5513Y-3.2918
X5.5513Y-3.3918
X5.5513Y-3.4918
X5.5513Y-3.5918
X5.5513Y-3.6918
X5.5513Y-3.7918
X5.5513Y-3.8918
X5.5513Y-3.9918
X5.5513Y-4.0918
X5.5513Y-4.1918
X5.5513Y-4.2918
X5.7245Y-2.4411
X5.7245Y-2.5411
X5.7245Y-2.6411
X5.7245Y-2.7411
X5.7245Y-2.8411
X5.7245Y-2.9411
X5.7245Y-3.0411
X5.7245Y-3.1411
X5.7245Y-3.2411
X5.7245Y-3.3411
X5.7245Y-3.4411
X5.7245Y-3.5411
X5.7245Y-3.6411
X5.7245Y-3.7411
X5.7245Y-3.8411
X5.7245Y-3.9411
X5.7245Y-4.0411
X5.7245Y-4.1411
X5.7245Y-4.2411
X5.7245Y-4.3411
T3
X6.3949Y-4.7966
X6.3949Y-5.0722
X6.4146Y-2.5131
X6.4146Y-2.71
X6.4541Y-4.7966
X6.4541Y-5.0722
X6.4737Y-2.5131
X6.4737Y-2.71
X6.4835Y-5.8891
X6.4835Y-5.9482
X6.7296Y-4.7966
X6.7296Y-5.0722
X6.7887Y-4.7966
X6.7887Y-5.0722
T4
X6.1095Y-5.7096
X6.1095Y-6.0096
X6.1686Y-4.745
X6.1686Y-5.045
X6.2867Y-5.3159
X6.2867Y-5.6159
X6.4139Y-2.9758
X6.4639Y-2.9008
X6.4639Y-3.2489
X6.4639Y-3.5489
X6.4639Y-3.6426
X6.4639Y-3.9426
X6.5139Y-2.9758
X6.6607Y-3.6426
X6.6607Y-3.9426
X6.8576Y-3.2489
X6.8576Y-3.5489
X6.8576Y-3.6426
X6.8576Y-3.9426
X6.956Y-4.0363
X6.956Y-4.3363
X7.015Y-4.8828
X7.015Y-5.1828
X7.0741Y-3.6426
X7.0741Y-3.9426
X7.2119Y-4.0363
X7.2119Y-4.3363
X7.2119Y-4.4497
X7.2119Y-4.7497
X7.2709Y-3.2293
X7.2709Y-3.5293
X7.2709Y-3.6426
X7.2709Y-3.9426
X7.4481Y-3.2293
X7.4481Y-3.5293
X7.4481Y-3.6426
X7.4481Y-3.9426
T6
X7.3784Y-4.6391
X7.4784Y-4.6391
T7
X2.852Y-1.3926
X2.852Y-1.6926
X2.952Y-1.3926
X2.952Y-1.6926
X3.052Y-1.3926
X3.052Y-1.6926
X3.152Y-1.3926
X3.152Y-1.6926
X4.9556Y-4.5466
X4.9556Y-4.6466
X4.9556Y-4.7466
X4.9556Y-4.8466
X4.9556Y-4.9466
X4.9556Y-5.0466
X4.9556Y-5.1466
X4.9556Y-5.3537
X4.9556Y-5.4537
X4.9556Y-5.5537
X4.9556Y-5.6537
X4.9556Y-5.7537
X4.9556Y-5.8537
X4.9556Y-5.9537
X5.2556Y-4.5466
X5.2556Y-4.6466
X5.2556Y-4.7466
X5.2556Y-4.8466
X5.2556Y-4.9466
X5.2556Y-5.0466
X5.2556Y-5.1466
X5.2556Y-5.3537
X5.2556Y-5.4537
X5.2556Y-5.5537
X5.2556Y-5.6537
X5.2556Y-5.7537
X5.2556Y-5.8537
X5.2556Y-5.9537
X5.6446Y-4.5466
X5.6446Y-4.6466
X5.6446Y-4.7466
X5.6446Y-4.8466
X5.6446Y-4.9466
X5.6446Y-5.0466
X5.6446Y-5.1466
X5.6446Y-5.3537
X5.6446Y-5.4537
X5.6446Y-5.5537
X5.6446Y-5.6537
X5.6446Y-5.7537
X5.6446Y-5.8537
X5.6446Y-5.9537
X5.9202Y-3.9938
X5.9202Y-4.0938
X5.9202Y-4.1938
X5.9202Y-4.2938
X5.93Y-2.9958
X5.93Y-3.0958
X5.93Y-3.1958
X5.93Y-3.2958
X5.93Y-3.3958
X5.93Y-3.4958
X5.93Y-3.5958
X5.93Y-3.6958
X5.93Y-3.7958
X5.932Y-2.5056
X5.932Y-2.6056
X5.932Y-2.7056
X5.932Y-2.8056
X5.9446Y-4.5466
X5.9446Y-4.6466
X5.9446Y-4.7466
X5.9446Y-4.8466
X5.9446Y-4.9466
X5.9446Y-5.0466
X5.9446Y-5.1466
X5.9446Y-5.3537
X5.9446Y-5.4537
X5.9446Y-5.5537
X5.9446Y-5.6537
X5.9446Y-5.7537
X5.9446Y-5.8537
X5.9446Y-5.9537
X6.2202Y-3.9938
X6.2202Y-4.0938
X6.2202Y-4.1938
X6.2202Y-4.2938
X6.23Y-2.9958
X6.23Y-3.0958
X6.23Y-3.1958
X6.23Y-3.2958
X6.23Y-3.3958
X6.23Y-3.4958
X6.23Y-3.5958
X6.23Y-3.6958
X6.23Y-3.7958
X6.232Y-2.5056
X6.232Y-2.6056
X6.232Y-2.7056
X6.232Y-2.8056
X6.7076Y-5.3537
X6.7076Y-5.4537
X6.7076Y-5.5537
X6.7076Y-5.6537
X6.7076Y-5.7537
X6.7076Y-5.8537
X6.7076Y-5.9537
X7.0076Y-5.3537
X7.0076Y-5.4537
X7.0076Y-5.5537
X7.0076Y-5.6537
X7.0076Y-5.7537
X7.0076Y-5.8537
X7.0076Y-5.9537
X7.2194Y-5.3537
X7.2194Y-5.4537
X7.2194Y-5.5537
X7.2194Y-5.6537
X7.2194Y-5.7537
X7.2194Y-5.8537
X7.2194Y-5.9537
X7.5194Y-5.3537
X7.5194Y-5.4537
X7.5194Y-5.5537
X7.5194Y-5.6537
X7.5194Y-5.7537
X7.5194Y-5.8537
X7.5194Y-5.9537
T8
X7.0959Y-2.5044
X7.1959Y-2.5044
X7.2959Y-2.5044
X7.3959Y-2.5044
X7.4501Y-3.1096
X7.4959Y-2.5044
X7.5072Y-4.1863
X7.5072Y-4.2863
T4
G00X6.1096Y-5.3159
M15
G01X6.1094Y-5.3159
M16
G05
G00X6.1096Y-5.6159
M15
G01X6.1094Y-5.6159
M16
G05
T5
G00X6.2868Y-5.7596
M15
G01X6.2866Y-5.7596
M16
G05
G00X6.2868Y-5.9596
M15
G01X6.2866Y-5.9596
M16
G05
G00X6.3639Y-3.1232
M15
G01X6.3639Y-3.1234
M16
G05
G00X6.4834Y-4.106
M15
G01X6.4836Y-4.106
M16
G05
G00X6.4834Y-4.306
M15
G01X6.4836Y-4.306
M16
G05
G00X6.5639Y-3.1232
M15
G01X6.5639Y-3.1234
M16
G05
G00X6.6409Y-4.106
M15
G01X6.6411Y-4.106
M16
G05
G00X6.6409Y-4.306
M15
G01X6.6411Y-4.306
M16
G05
G00X6.6608Y-3.2793
M15
G01X6.6606Y-3.2793
M16
G05
G00X6.6608Y-3.4793
M15
G01X6.6606Y-3.4793
M16
G05
G00X7.0742Y-3.2793
M15
G01X7.074Y-3.2793
M16
G05
G00X7.0742Y-3.4793
M15
G01X7.074Y-3.4793
M16
G05
G00X7.271Y-4.9525
M15
G01X7.2708Y-4.9525
M16
G05
G00X7.271Y-5.1525
M15
G01X7.2708Y-5.1525
M16
G05
G00X7.4876Y-4.9525
M15
G01X7.4874Y-4.9525
M16
G05
G00X7.4876Y-5.1525
M15
G01X7.4874Y-5.1525
M16
G05
T0
M30
